<?xml version="1.0" encoding="UTF-8"?>
<svg version="1.1" xmlns="http://www.w3.org/2000/svg" width="500" height="250">
<path d="M0 0 C4.29 0 8.58 0 13 0 C15.99732043 3.17897622 17.90469822 5.4826396 19.96923828 9.16894531 C21.06766633 11.12020309 22.22600649 13.02443714 23.40234375 14.9296875 C24.75869804 17.12814454 26.10998103 19.32872673 27.4440918 21.54077148 C31.84278416 28.83261361 36.48300986 35.95643309 41.17016602 43.06542969 C47.24548989 52.30079672 53.09187681 61.64547162 59 71 C59.33 47.57 59.66 24.14 60 0 C63.96 0 67.92 0 72 0 C72 31.35 72 62.7 72 95 C58 95 58 95 54.578125 91.58984375 C53.74967116 90.06641755 52.97547962 88.51256904 52.25 86.9375 C51.36127326 85.2665231 50.46929256 83.59727315 49.57421875 81.9296875 C49.14544434 81.09276367 48.71666992 80.25583984 48.27490234 79.39355469 C46.43886442 75.94650073 44.28410622 72.76922889 42.0625 69.5625 C37.81211654 63.28893063 33.74338148 56.91078954 29.72485352 50.48657227 C24.57154075 42.26374508 19.27467902 34.15177666 14 26 C13.67 48.77 13.34 71.54 13 95 C8.71 95 4.42 95 0 95 C0 63.65 0 32.3 0 0 Z " fill="#BBB524" transform="translate(405,75)"/>
<path d="M0 0 C5.71968382 4.47213726 10.12548778 10.60112093 11.0390625 17.9453125 C11.05078125 20.15234375 11.05078125 20.15234375 10.73828125 23.52734375 C6.77828125 23.85734375 2.81828125 24.18734375 -1.26171875 24.52734375 C-1.81859375 22.79484375 -2.37546875 21.06234375 -2.94921875 19.27734375 C-5.00451781 13.63974526 -7.02314276 11.12909433 -12.42578125 8.45703125 C-16.03699326 7.2731904 -19.44115549 7.19739685 -23.19921875 7.21484375 C-23.88951172 7.19873047 -24.57980469 7.18261719 -25.29101562 7.16601562 C-30.03720767 7.16151686 -33.23352482 8.04249631 -37.26171875 10.52734375 C-40.31991839 13.66819743 -42.05103049 16.1028903 -42.26171875 20.52734375 C-41.77580655 24.22847588 -41.77580655 24.22847588 -40.26171875 27.52734375 C-35.69178952 29.9211162 -30.34202098 30.96285385 -25.38671875 32.33984375 C-22.55972843 33.14765996 -19.7341846 33.96040245 -16.90869141 34.7734375 C-15.26768859 35.24082513 -13.62448685 35.70065121 -11.97802734 36.1484375 C-1.95194616 38.87918513 6.13032409 42.51646415 12.01171875 51.46484375 C15.03156719 58.11405133 14.85482589 66.90184887 12.67578125 73.77734375 C9.39139934 81.09117569 3.93612325 86.30572742 -3.34375 89.5546875 C-16.26118126 93.86049792 -30.3030247 93.53479539 -42.76171875 87.96484375 C-50.23768879 83.82941483 -55.16331482 77.63462578 -57.83984375 69.5234375 C-58.55520958 66.13869733 -58.44641481 62.97500346 -58.26171875 59.52734375 C-55.37960573 58.56663941 -53.56321831 58.42152492 -50.57421875 58.46484375 C-49.36185547 58.47837891 -49.36185547 58.47837891 -48.125 58.4921875 C-47.51011719 58.50378906 -46.89523437 58.51539063 -46.26171875 58.52734375 C-46.00648438 59.52314453 -46.00648438 59.52314453 -45.74609375 60.5390625 C-43.50184049 68.89985537 -43.50184049 68.89985537 -37.33203125 74.67578125 C-28.83675592 79.06345092 -18.93544719 80.30958763 -9.5703125 77.80859375 C-5.47301232 75.88045249 -2.52792412 73.42521698 -0.26171875 69.52734375 C0.82942904 65.52646851 0.99059773 63.28429319 -0.32421875 59.33984375 C-4.06883496 53.90411054 -9.14284499 51.99790057 -15.34765625 50.34375 C-16.70444024 49.96944871 -18.06121065 49.59509822 -19.41796875 49.22070312 C-21.52540043 48.6534495 -23.63394058 48.09058208 -25.74316406 47.5300293 C-36.93235256 44.53395276 -46.45977597 41.5065098 -53.26171875 31.52734375 C-56.12589454 25.66880237 -56.12142034 19.17835495 -54.64453125 12.90625 C-52.0519092 5.36929122 -47.79839998 1.12744847 -40.96484375 -2.7890625 C-28.49889606 -8.34453919 -11.39725141 -7.42100826 0 0 Z " fill="#F9E888" transform="translate(341.26171875,79.47265625)"/>
<path d="M0 0 C6.06852302 1.82131264 10.95057682 6.67850785 14.4453125 11.89453125 C17.38506939 18.58986273 17.26041911 27.29333306 15.07421875 34.19140625 C11.78983684 41.50523819 6.33456075 46.71978992 -0.9453125 49.96875 C-13.86274376 54.27456042 -27.9045872 53.94885789 -40.36328125 48.37890625 C-47.83925129 44.24347733 -52.76487732 38.04868828 -55.44140625 29.9375 C-56.15677208 26.55275983 -56.04797731 23.38906596 -55.86328125 19.94140625 C-52.98116823 18.98070191 -51.16478081 18.83558742 -48.17578125 18.87890625 C-46.96341797 18.89244141 -46.96341797 18.89244141 -45.7265625 18.90625 C-45.11167969 18.91785156 -44.49679687 18.92945313 -43.86328125 18.94140625 C-43.693125 19.60527344 -43.52296875 20.26914063 -43.34765625 20.953125 C-41.10340299 29.31391787 -41.10340299 29.31391787 -34.93359375 35.08984375 C-26.43831842 39.47751342 -16.53700969 40.72365013 -7.171875 38.22265625 C-3.07457482 36.29451499 -0.12948662 33.83927948 2.13671875 29.94140625 C3.22786654 25.94053101 3.38903523 23.69835569 2.07421875 19.75390625 C-1.73741929 14.2208833 -6.9222116 12.35980201 -13.23828125 10.69140625 C-14.48351562 10.35625 -15.72875 10.02109375 -17.01171875 9.67578125 C-18.42324219 9.31226563 -18.42324219 9.31226563 -19.86328125 8.94140625 C-16.23352321 6.52156756 -12.57701283 5.40685208 -8.45703125 4.0390625 C-5.82722372 3.15032934 -5.82722372 3.15032934 -4.39453125 1.25 C-2.86328125 -0.05859375 -2.86328125 -0.05859375 0 0 Z " fill="#91AB1A" transform="translate(338.86328125,119.05859375)"/>
<path d="M0 0 C2.97 0 5.94 0 9 0 C9 23.43 9 46.86 9 71 C6.03 71 3.06 71 0 71 C-0.33 70.01 -0.66 69.02 -1 68 C-1.598125 68.474375 -2.19625 68.94875 -2.8125 69.4375 C-7.21421968 72.58158548 -11.79010164 72.5920339 -17 72 C-24.72457937 69.67702867 -29.12185466 64.44326646 -32.875 57.5625 C-35.81187552 48.52325439 -35.05248536 37.00308348 -31.41015625 28.34765625 C-28.48092582 23.47101501 -24.40328213 19.80109404 -19 18 C-17.06717522 17.82986679 -15.12724427 17.73385867 -13.1875 17.6875 C-12.17042969 17.65011719 -11.15335938 17.61273438 -10.10546875 17.57421875 C-7 18 -7 18 -1 22 C-0.67 14.74 -0.34 7.48 0 0 Z M-20.70703125 29.2734375 C-25.51753462 35.69713082 -25.402092 43.41040444 -24.58203125 51.0703125 C-23.79425339 55.0356373 -22.68254539 57.00186104 -20 60 C-19.566875 60.598125 -19.13375 61.19625 -18.6875 61.8125 C-15.81767899 63.83200367 -13.47031629 63.9421614 -10 64 C-6.03140484 62.69882126 -3.58242619 60.79598246 -1.125 57.4375 C1.41577477 49.67402155 1.8156021 41.73914161 -1 34 C-2.67602816 30.9272817 -4.02669361 28.73837036 -6.8125 26.625 C-12.2229621 25.07915368 -16.48469652 25.22090175 -20.70703125 29.2734375 Z " fill="#000000" transform="translate(132,67)"/>
<path d="M0 0 C0.66878174 -0.0103125 1.33756348 -0.020625 2.02661133 -0.03125 C8.06939137 0.07597863 12.86406413 1.4794835 17.25 5.75 C20.2724003 10.74858512 20.02426731 16.31106384 20.15625 22.03125 C20.18386414 23.09587463 20.18386414 23.09587463 20.21203613 24.18200684 C20.29000449 27.19297591 20.35817927 30.20414778 20.42724609 33.21533203 C20.47934285 35.42490352 20.53644171 37.6343085 20.59375 39.84375 C20.62404297 41.15666016 20.65433594 42.46957031 20.68554688 43.82226562 C20.85766697 47.10674287 21.25853366 50.210411 21.875 53.4375 C18.575 53.4375 15.275 53.4375 11.875 53.4375 C11.545 51.7875 11.215 50.1375 10.875 48.4375 C9.575625 49.365625 9.575625 49.365625 8.25 50.3125 C1.64118333 54.47360679 -4.42799701 55.28908331 -12.125 54.4375 C-16.94008394 53.17163767 -20.12216309 51.12296405 -22.6875 46.8125 C-24.71515979 41.96059979 -24.56072011 37.44992636 -23.125 32.4375 C-20.93868199 28.14583872 -17.68106355 25.9266636 -13.26953125 24.12231445 C-9.01535361 22.76382535 -4.60539567 22.30261443 -0.1875 21.75 C0.78251953 21.62044922 1.75253906 21.49089844 2.75195312 21.35742188 C5.12527123 21.04175888 7.49939441 20.73536857 9.875 20.4375 C9.64639942 18.97565942 9.39129608 17.51794581 9.125 16.0625 C8.98578125 15.25039062 8.8465625 14.43828125 8.703125 13.6015625 C8.05971051 11.29110294 8.05971051 11.29110294 5.94921875 10.16503906 C3.48784207 9.30170308 1.48103185 9.17160956 -1.125 9.1875 C-2.3934375 9.17976563 -2.3934375 9.17976563 -3.6875 9.171875 C-6.34226435 9.46117624 -7.91324504 9.94696948 -10.125 11.4375 C-11.22993335 13.13700428 -11.22993335 13.13700428 -11.875 15.0625 C-12.2875 16.17625 -12.7 17.29 -13.125 18.4375 C-15.765 18.1075 -18.405 17.7775 -21.125 17.4375 C-22.17497066 14.85295683 -22.36994833 13.09899147 -21.39453125 10.46484375 C-18.8248259 5.77271964 -16.01132835 2.95806534 -10.98828125 1.05859375 C-7.32490091 0.26394508 -3.7344632 0.04811456 0 0 Z M-1.5625 30.125 C-2.32626953 30.27388672 -3.09003906 30.42277344 -3.87695312 30.57617188 C-7.76482766 31.43901609 -9.72864629 32.05399109 -12.65625 34.88671875 C-14.37513559 37.39847543 -14.37513559 37.39847543 -14.1875 40.5625 C-13.34195081 43.5296298 -13.34195081 43.5296298 -11.0625 45.3125 C-6.60451682 47.01981271 -2.64566732 47.32449427 1.83984375 45.74609375 C4.93666834 44.18131346 6.8216064 42.51328447 8.8125 39.6875 C10.12463953 35.67389673 10.09245942 32.64171549 9.875 28.4375 C5.93478561 28.4375 2.26592885 29.28602441 -1.5625 30.125 Z " fill="#000000" transform="translate(195.125,84.5625)"/>
<path d="M0 0 C37.95 0 75.9 0 115 0 C115.495 1.485 115.495 1.485 116 3 C114.68 3 113.36 3 112 3 C112 9.93 112 16.86 112 24 C110.68 23.67 109.36 23.34 108 23 C108 21.35 108 19.7 108 18 C106.948125 18.12375 105.89625 18.2475 104.8125 18.375 C100.41687134 17.94264308 100.41687134 17.94264308 98.0625 15.25 C96 12 96 12 96 8 C97.32 7.34 98.64 6.68 100 6 C100 5.34 100 4.68 100 4 C97.36 3.67 94.72 3.34 92 3 C91.79495651 6.35324965 91.67181805 9.70487403 91.5625 13.0625 C91.50384766 14.00544922 91.44519531 14.94839844 91.38476562 15.91992188 C91.23642423 21.41760783 91.23642423 21.41760783 93.58935547 26.24560547 C95.31648619 27.97273619 97.05337649 29.52741333 99 31 C98.67 31.99 98.34 32.98 98 34 C97.13375 33.21625 96.2675 32.4325 95.375 31.625 C92.44943553 29.16613272 89.72463238 27.97549896 86 27 C86 26.01 86 25.02 86 24 C86.99 23.67 87.98 23.34 89 23 C89 18.71 89 14.42 89 10 C88.01 10.33 87.02 10.66 86 11 C86.04125 12.11375 86.0825 13.2275 86.125 14.375 C86 18 86 18 84 20 C80.75 20.5625 80.75 20.5625 77 20 C73.27281991 17.12593002 71.28131703 14.10517406 70.125 9.5625 C70.08375 8.716875 70.0425 7.87125 70 7 C73 8 73 8 74.9375 11 C76.66243964 14.11164048 76.66243964 14.11164048 79.25 14.875 C80.11625 14.936875 80.11625 14.936875 81 15 C81 13.68 81 12.36 81 11 C80.01 10.67 79.02 10.34 78 10 C78 8.68 78 7.36 78 6 C81.63 6 85.26 6 89 6 C89 5.01 89 4.02 89 3 C81.74 3 74.48 3 67 3 C67 9.93 67 16.86 67 24 C65.68 23.67 64.36 23.34 63 23 C63 16.4 63 9.8 63 3 C61.02 3 59.04 3 57 3 C57.04125 4.2375 57.0825 5.475 57.125 6.75 C57.13658291 10.01637962 56.8568702 12.2146947 55 15 C56.98 16.65 58.96 18.3 61 20 C60.67 21.32 60.34 22.64 60 24 C54.93079015 21.93476636 50.77420514 17.6723455 48 13 C47.8125 10.25 47.8125 10.25 48 8 C49.65 7.67 51.3 7.34 53 7 C53 6.01 53 5.02 53 4 C50.03 3.67 47.06 3.34 44 3 C44 9.93 44 16.86 44 24 C42.68 23.67 41.36 23.34 40 23 C40 16.4 40 9.8 40 3 C39.01 3 38.02 3 37 3 C37.05220703 4.01320312 37.05220703 4.01320312 37.10546875 5.046875 C37.13253906 5.93890625 37.15960938 6.8309375 37.1875 7.75 C37.23970703 9.07257813 37.23970703 9.07257813 37.29296875 10.421875 C36.9432368 13.49951615 36.15531808 14.8043956 34 17 C30.49182714 17.59713581 28.71064394 17.41142544 25.625 15.625 C23.13036958 11.5952124 23.68264112 7.61933486 24 3 C22.35 3 20.7 3 19 3 C19 9.93 19 16.86 19 24 C18.01 23.67 17.02 23.34 16 23 C16 16.4 16 9.8 16 3 C13.69 3 11.38 3 9 3 C9 7.29 9 11.58 9 16 C7.35 16.33 5.7 16.66 4 17 C2 14 2 14 2.375 11.8125 C2.58125 11.214375 2.7875 10.61625 3 10 C3.99 10 4.98 10 6 10 C6 7.69 6 5.38 6 3 C4.02 3 2.04 3 0 3 C0 2.01 0 1.02 0 0 Z M27 4 C27.08937803 5.52519276 27.24537146 7.04681929 27.4375 8.5625 C27.53933594 9.38878906 27.64117187 10.21507812 27.74609375 11.06640625 C27.82988281 11.70449219 27.91367188 12.34257812 28 13 C29.32 13 30.64 13 32 13 C33.23267348 11.99163938 33.23267348 11.99163938 33.09765625 9.93359375 C33.08605469 9.10988281 33.07445312 8.28617188 33.0625 7.4375 C33.05347656 6.61121094 33.04445313 5.78492188 33.03515625 4.93359375 C33.02355469 4.29550781 33.01195312 3.65742188 33 3 C29.71069596 2.63314303 29.71069596 2.63314303 27 4 Z M104 3 C103.71125 4.134375 103.4225 5.26875 103.125 6.4375 C102.75375 7.613125 102.3825 8.78875 102 10 C101.01 10.495 101.01 10.495 100 11 C100.33 11.99 100.66 12.98 101 14 C102.98 14 104.96 14 107 14 C109.32590854 10.36576791 109.16265833 7.22911669 109 3 C107.35 3 105.7 3 104 3 Z " fill="#EB4034" transform="translate(97,148)"/>
<path d="M0 0 C4.29 0 8.58 0 13 0 C13 31.35 13 62.7 13 95 C8.71 95 4.42 95 0 95 C0 63.65 0 32.3 0 0 Z " fill="#A2B828" transform="translate(372,75)"/>
<path d="M0 0 C4.29 0 8.58 0 13 0 C13 31.35 13 62.7 13 95 C8.71 95 4.42 95 0 95 C0 63.65 0 32.3 0 0 Z " fill="#CDC44B" transform="translate(254,75)"/>
<path d="M0 0 C3.76916441 2.7326442 6.02501042 5.38753126 7.5 9.8125 C7.58589303 11.20905459 7.61772715 12.60935777 7.61352539 14.00854492 C7.61344986 14.84918991 7.61337433 15.6898349 7.61329651 16.55595398 C7.60813522 17.45916885 7.60297394 18.36238373 7.59765625 19.29296875 C7.5962413 20.22095779 7.59482635 21.14894684 7.59336853 22.10505676 C7.58776937 25.07007058 7.57521704 28.03500899 7.5625 31 C7.55748489 33.00976453 7.552922 35.01953025 7.54882812 37.02929688 C7.53780021 41.95706032 7.52053617 46.88476737 7.5 51.8125 C4.53 51.8125 1.56 51.8125 -1.5 51.8125 C-1.51458252 50.71784424 -1.52916504 49.62318848 -1.54418945 48.49536133 C-1.60228739 44.42293095 -1.67951927 40.35104685 -1.76245117 36.27905273 C-1.79564654 34.51872645 -1.82369524 32.75829512 -1.84643555 30.99780273 C-1.8800812 28.46292475 -1.9324006 25.92900477 -1.98828125 23.39453125 C-1.99467117 22.61100784 -2.0010611 21.82748444 -2.00764465 21.0202179 C-2.12964626 16.45681161 -2.69508274 13.45702567 -5.5 9.8125 C-8.13352638 7.7433007 -9.5381031 7.81319278 -12.9375 7.875 C-17.14827101 8.98309763 -18.75210722 10.49886458 -21.5 13.8125 C-23.08230808 16.97711615 -22.74157813 20.40329367 -22.81640625 23.8828125 C-22.83718735 24.67904022 -22.85796844 25.47526794 -22.87937927 26.29562378 C-22.94484149 28.84282685 -23.00374415 31.39013425 -23.0625 33.9375 C-23.1056884 35.66277127 -23.14930279 37.38803193 -23.19335938 39.11328125 C-23.30051945 43.34624685 -23.40179623 47.57931753 -23.5 51.8125 C-26.8 51.8125 -30.1 51.8125 -33.5 51.8125 C-33.5 34.6525 -33.5 17.4925 -33.5 -0.1875 C-30.53 -0.1875 -27.56 -0.1875 -24.5 -0.1875 C-24.17 1.1325 -23.84 2.4525 -23.5 3.8125 C-22.736875 3.173125 -21.97375 2.53375 -21.1875 1.875 C-15.27289407 -2.66411618 -6.85431737 -2.32557196 0 0 Z " fill="#000000" transform="translate(81.5,86.1875)"/>
<path d="M0 0 C3.22752874 2.96583722 3.96016194 4.39246964 4.25 8.8125 C4.1675 9.864375 4.085 10.91625 4 12 C5.98 12 7.96 12 10 12 C10 9.36 10 6.72 10 4 C8.02 4 6.04 4 4 4 C4 3.01 4 2.02 4 1 C22.15 1 40.3 1 59 1 C59.495 2.485 59.495 2.485 60 4 C58.68 4 57.36 4 56 4 C56 10.93 56 17.86 56 25 C54.68 24.67 53.36 24.34 52 24 C52 19.71 52 15.42 52 11 C49.36 11.66 46.72 12.32 44 13 C45.24976756 16.65316671 45.67098753 17.78065836 49 20 C48.505 22.475 48.505 22.475 48 25 C44.15602 23.764435 42.605099 21.37876 40.765625 17.875 C39.61329388 15.0529646 39.45649163 12.98929601 40 10 C41.5 8.125 41.5 8.125 44 7 C46.72069588 6.76635245 49.25866151 6.86293308 52 7 C52 6.01 52 5.02 52 4 C46.39 4 40.78 4 35 4 C35 6.64 35 9.28 35 12 C34 14.5 34 14.5 33 16 C34.98 17.65 36.96 19.3 39 21 C38.67 22.32 38.34 23.64 38 25 C32.93079015 22.93476636 28.77420514 18.6723455 26 14 C25.8125 11.25 25.8125 11.25 26 9 C27.65 8.67 29.3 8.34 31 8 C31 7.01 31 6.02 31 5 C28.03 4.67 25.06 4.34 22 4 C22 10.93 22 17.86 22 25 C20.68 24.67 19.36 24.34 18 24 C18 17.4 18 10.8 18 4 C16.35 4 14.7 4 13 4 C13 10.93 13 17.86 13 25 C12.01 24.67 11.02 24.34 10 24 C10 21.03 10 18.06 10 15 C7.06556598 15.26656572 7.06556598 15.26656572 4 16 C3.34 16.99 2.68 17.98 2 19 C0.125 18.8125 0.125 18.8125 -2 18 C-3.25 15.4375 -3.25 15.4375 -4 13 C-2.68 12.67 -1.36 12.34 0 12 C-0.33 9.36 -0.66 6.72 -1 4 C-1.66 4 -2.32 4 -3 4 C-3 4.66 -3 5.32 -3 6 C-2.34 6.33 -1.68 6.66 -1 7 C-1 7.66 -1 8.32 -1 9 C-3.375 8.6875 -3.375 8.6875 -6 8 C-8 5 -8 5 -7.75 2.375 C-7.5025 1.59125 -7.255 0.8075 -7 0 C-4.20824656 -1.39587672 -2.93876905 -0.97958968 0 0 Z " fill="#EB4034" transform="translate(31,147)"/>
<path d="M0 0 C0.33 0.66 0.66 1.32 1 2 C1.99 2 2.98 2 4 2 C3.79375 3.010625 3.5875 4.02125 3.375 5.0625 C2.96338442 9.38446355 3.28321344 12.02017661 5 16 C9.66904938 18.43277122 15.13238902 19.52320891 20.1875 20.9375 C27.14481045 22.89596536 34.08372275 24.90073281 41 27 C38.03416676 32.08428555 34.23043911 33.39472026 28.94921875 35.30078125 C22.65758973 36.79243899 17.44180681 35.85181467 11.4375 33.75 C10.80392578 33.54503906 10.17035156 33.34007812 9.51757812 33.12890625 C1.95567542 30.55894961 -3.43555971 26.44975259 -8 20 C-10.89570445 14.07696817 -10.7361512 7.27921896 -9.3125 0.9375 C-8 -1 -8 -1 -5.5625 -1.9375 C-3 -2 -3 -2 0 0 Z " fill="#C9C64C" transform="translate(296,91)"/>
<path d="M0 0 C1.65 0 3.3 0 5 0 C5 49.17 5 98.34 5 149 C3.35 149 1.7 149 0 149 C0 99.83 0 50.66 0 0 Z " fill="#000000" transform="translate(233,48)"/>
<path d="M0 0 C3.3 0 6.6 0 10 0 C10 23.43 10 46.86 10 71 C6.7 71 3.4 71 0 71 C0 47.57 0 24.14 0 0 Z " fill="#000000" transform="translate(25,67)"/>
<path d="M0 0 C0 12.54 0 25.08 0 38 C-4.29 38 -8.58 38 -13 38 C-13 26.12 -13 14.24 -13 2 C-1 0 -1 0 0 0 Z " fill="#96AA17" transform="translate(267,132)"/>
<path d="M0 0 C2.97 0 5.94 0 9 0 C9 17.16 9 34.32 9 52 C6.03 52 3.06 52 0 52 C0 34.84 0 17.68 0 0 Z " fill="#000000" transform="translate(153,86)"/>
<path d="M0 0 C4.29 0 8.58 0 13 0 C13.37004405 11.47136564 13.37004405 11.47136564 11.6875 13.875 C9.1654793 15.55634713 6.94775013 15.19651668 4 15 C4.66 16.65 5.32 18.3 6 20 C4.71034824 21.37562854 3.37310707 22.70766393 2 24 C1.34 24 0.68 24 0 24 C0 16.08 0 8.16 0 0 Z " fill="#F7E67C" transform="translate(372,75)"/>
<path d="M0 0 C3.96 0 7.92 0 12 0 C12 5.94 12 11.88 12 18 C11.01 18 10.02 18 9 18 C8.67 18.66 8.34 19.32 8 20 C8 19.34 8 18.68 8 18 C5.36 18 2.72 18 0 18 C0 12.06 0 6.12 0 0 Z " fill="#FAA729" transform="translate(465,75)"/>
<path d="M0 0 C1.65 0.33 3.3 0.66 5 1 C5 9.58 5 18.16 5 27 C0.38 27 -4.24 27 -9 27 C-9.33 25.35 -9.66 23.7 -10 22 C-7.35261084 20.5393715 -6.10551666 20 -3 20 C-2.67 19.01 -2.34 18.02 -2 17 C-1.01 17 -0.02 17 1 17 C0.40138258 14.64828869 -0.26924352 12.3140622 -1 10 C-1.66 9.67 -2.32 9.34 -3 9 C-2.67 6.69 -2.34 4.38 -2 2 C-1.34 2 -0.68 2 0 2 C0 1.34 0 0.68 0 0 Z " fill="#9CC522" transform="translate(472,143)"/>
<path d="M0 0 C1.18851562 0.00902344 2.37703125 0.01804687 3.6015625 0.02734375 C4.51679688 0.03894531 5.43203125 0.05054687 6.375 0.0625 C8.45436893 4.73698685 8.54617803 8.01274803 8.375 13.0625 C2.435 13.5575 2.435 13.5575 -3.625 14.0625 C-4.63411458 11.26302083 -5.64322917 8.46354167 -6.65234375 5.6640625 C-7.54849292 3.12745835 -7.54849292 3.12745835 -8.625 1.0625 C-5.74084117 -0.37957941 -3.20778472 -0.03144887 0 0 Z " fill="#D4D056" transform="translate(343.625,89.9375)"/>
<path d="M0 0 C-0.99 0.33 -1.98 0.66 -3 1 C-3 1.66 -3 2.32 -3 3 C-16.37985437 10.67597087 -16.37985437 10.67597087 -23 12 C-22.67 12.99 -22.34 13.98 -22 15 C-23 16 -23 16 -25.5625 16.0625 C-26.366875 16.041875 -27.17125 16.02125 -28 16 C-25.38243959 9.53308605 -21.59025329 5.7106501 -15.34375 2.734375 C-10.06833052 0.67638169 -5.65320206 -0.50250685 0 0 Z " fill="#FBE26D" transform="translate(316,74)"/>
<path d="M0 0 C0.99 0 1.98 0 3 0 C3.36 5.4 3.36 5.4 1.875 7.875 C-0.78034983 9.4682099 -2.96789518 9.20214032 -6 9 C-5.34 10.65 -4.68 12.3 -4 14 C-5.28965176 15.37562854 -6.62689293 16.70766393 -8 18 C-8.66 18 -9.32 18 -10 18 C-10 14.37 -10 10.74 -10 7 C-9.01 7 -8.02 7 -7 7 C-7 6.34 -7 5.68 -7 5 C-2.61538462 2 -2.61538462 2 0 2 C0 1.34 0 0.68 0 0 Z " fill="#E6DF68" transform="translate(382,81)"/>
<path d="M0 0 C1.65 0.33 3.3 0.66 5 1 C5 6.61 5 12.22 5 18 C4.01 18.33 3.02 18.66 2 19 C1.70996094 18.04287109 1.70996094 18.04287109 1.4140625 17.06640625 C1.15367187 16.24011719 0.89328125 15.41382813 0.625 14.5625 C0.36976563 13.73878906 0.11453125 12.91507813 -0.1484375 12.06640625 C-0.80882227 9.82201984 -0.80882227 9.82201984 -3 9 C-2.67 6.69 -2.34 4.38 -2 2 C-1.34 2 -0.68 2 0 2 C0 1.34 0 0.68 0 0 Z " fill="#ACC829" transform="translate(472,143)"/>
<path d="M0 0 C4.29 0 8.58 0 13 0 C13 1.65 13 3.3 13 5 C12.401875 5.268125 11.80375 5.53625 11.1875 5.8125 C9.02775192 6.98493467 7.64209744 8.19369282 6 10 C5.01 9.34 4.02 8.68 3 8 C2.01 8.66 1.02 9.32 0 10 C0 6.7 0 3.4 0 0 Z " fill="#F1DB68" transform="translate(254,75)"/>
<path d="M0 0 C2.97 0 5.94 0 9 0 C9 3.3 9 6.6 9 10 C6.03 10 3.06 10 0 10 C0 6.7 0 3.4 0 0 Z " fill="#000000" transform="translate(153,67)"/>
<path d="M0 0 C0.99 0.33 1.98 0.66 3 1 C-2.49955116 6.21752289 -8.34695627 9.15626298 -16.0625 9.1875 C-17.031875 9.125625 -18.00125 9.06375 -19 9 C-19 8.01 -19 7.02 -19 6 C-15.24142629 5.22597091 -11.47373749 4.56160508 -7.6875 3.9375 C-6.61886719 3.76089844 -5.55023438 3.58429688 -4.44921875 3.40234375 C-3.23685547 3.20318359 -3.23685547 3.20318359 -2 3 C-2 2.34 -2 1.68 -2 1 C-1.34 0.67 -0.68 0.34 0 0 Z " fill="#B4BD37" transform="translate(334,118)"/>
<path d="M0 0 C1.18851562 0.00902344 2.37703125 0.01804687 3.6015625 0.02734375 C4.51679688 0.03894531 5.43203125 0.05054687 6.375 0.0625 C6.705 1.0525 7.035 2.0425 7.375 3.0625 C2.755 3.3925 -1.865 3.7225 -6.625 4.0625 C-7.285 3.0725 -7.945 2.0825 -8.625 1.0625 C-5.74084117 -0.37957941 -3.20778472 -0.03144887 0 0 Z " fill="#E8DC6B" transform="translate(343.625,89.9375)"/>
<path d="M0 0 C0.99 0.33 1.98 0.66 3 1 C1.515 3.475 1.515 3.475 0 6 C-0.66 5.67 -1.32 5.34 -2 5 C-1 2 -1 2 0 0 Z M-6 2 C-5.67 2.99 -5.34 3.98 -5 5 C-2.98491642 5.73323796 -2.98491642 5.73323796 -1 6 C-0.67 7.32 -0.34 8.64 0 10 C-0.99 10.66 -1.98 11.32 -3 12 C-6.22265625 6.82421875 -6.22265625 6.82421875 -7 5 C-6.67 4.01 -6.34 3.02 -6 2 Z " fill="#A5C129" transform="translate(461,150)"/>
<path d="M0 0 C1.32 0 2.64 0 4 0 C4.66 1.65 5.32 3.3 6 5 C4.71034824 6.37562854 3.37310707 7.70766393 2 9 C1.34 9 0.68 9 0 9 C0 6.03 0 3.06 0 0 Z " fill="#C9D14E" transform="translate(372,90)"/>
<path d="M0 0 C0.33 0.99 0.66 1.98 1 3 C-2.08888522 5.05925681 -2.70935927 5.2390374 -6.1875 5.125 C-8.0746875 5.063125 -8.0746875 5.063125 -10 5 C-10 4.34 -10 3.68 -10 3 C-10.66 2.67 -11.32 2.34 -12 2 C-8.04 1.34 -4.08 0.68 0 0 Z " fill="#9DAD1E" transform="translate(266,132)"/>
<path d="M0 0 C0.598125 0.350625 1.19625 0.70125 1.8125 1.0625 C-0.5 2.625 -0.5 2.625 -3.1875 4.0625 C-4.1775 3.7325 -5.1675 3.4025 -6.1875 3.0625 C-5.8575 2.0725 -5.5275 1.0825 -5.1875 0.0625 C-2.1875 -0.9375 -2.1875 -0.9375 0 0 Z " fill="#E3D869" transform="translate(301.1875,89.9375)"/>
</svg>
