<?xml version="1.0" encoding="UTF-8"?>
<svg xmlns="http://www.w3.org/2000/svg" viewBox="0 0 99.54 125.98">
    <defs>
        <style>.cls-1{fill:#f97316;}.cls-2{fill:#fff;}</style>
    </defs>
    <g id="Layer_2" data-name="Layer 2">
        <g id="Layer_1-2" data-name="Layer 1">
            <path id="Path-50" class="cls-1" d="M0,8.71,47.28,0h4.36l47.9,8.71V66.57c0,18-9.33,35.46-24.89,44.79L52.88,125.05c-1.87,1.24-4.35,1.24-6.84,0L24.88,111.36A53.24,53.24,0,0,1,0,66.57Z"></path>
            <path id="check-path" class="cls-2" d="M44.79,75.9A6.69,6.69,0,0,1,40.44,74L28.62,62.21c-2.49-2.49-2.49-6.22,0-8.09,2.49-2.48,6.22-2.48,8.08,0l7.47,7.47L64.08,41.68c2.49-2.49,6.22-2.49,8.09,0,2.48,2.49,2.48,6.22,0,8.09L48.53,73.41A3.88,3.88,0,0,1,44.79,75.9Z"></path>
        </g>
    </g>
</svg> 